<svg width="718" height="719" viewBox="0 0 718 719" fill="none" xmlns="http://www.w3.org/2000/svg">
<rect y="639" width="58" height="15" fill="#825E11"/>
<rect x="58" y="581" width="58" height="15" fill="#825E11"/>
<rect x="116" y="523" width="58" height="15" fill="#825E11"/>
<rect x="174" y="465" width="58" height="15" fill="#825E11"/>
<rect x="232" y="407" width="58" height="15" fill="#825E11"/>
<rect x="290" y="349" width="58" height="15" fill="#825E11"/>
<rect x="348" y="291" width="58" height="15" fill="#825E11"/>
<rect x="406" y="233" width="58" height="15" fill="#825E11"/>
<rect x="464" y="175" width="58" height="15" fill="#825E11"/>
<rect x="522" y="117" width="58" height="15" fill="#825E11"/>
<rect x="580" y="59" width="58" height="15" fill="#825E11"/>
<rect x="638" y="1" width="58.1" height="15" fill="#825E11"/>
<rect x="696.109" y="0.997559" width="30" height="984.442" transform="rotate(45 696.109 0.997559)" fill="#C4C4C4"/>
<rect width="22" height="43" transform="matrix(-1 0 0 1 80 596)" fill="#C4C4C4"/>
<rect width="22" height="43" transform="matrix(-1 0 0 1 138 538)" fill="#C4C4C4"/>
<rect width="22" height="43" transform="matrix(-1 0 0 1 196 480)" fill="#C4C4C4"/>
<rect width="22" height="43" transform="matrix(-1 0 0 1 254 422)" fill="#C4C4C4"/>
<rect width="22" height="43" transform="matrix(-1 0 0 1 312 364)" fill="#C4C4C4"/>
<rect width="22" height="43" transform="matrix(-1 0 0 1 370 306)" fill="#C4C4C4"/>
<rect width="22" height="43" transform="matrix(-1 0 0 1 428 248)" fill="#C4C4C4"/>
<rect width="22" height="43" transform="matrix(-1 0 0 1 486 190)" fill="#C4C4C4"/>
<rect width="22" height="43" transform="matrix(-1 0 0 1 544 132)" fill="#C4C4C4"/>
<rect width="22" height="43" transform="matrix(-1 0 0 1 602 74)" fill="#C4C4C4"/>
<rect width="22" height="43" transform="matrix(-1 0 0 1 660 16)" fill="#C4C4C4"/>
<rect x="71" y="596" width="31" height="21" fill="#C4C4C4"/>
<rect x="130" y="538" width="31" height="21" fill="#C4C4C4"/>
<rect x="191" y="480" width="28" height="21" fill="#C4C4C4"/>
<rect x="247" y="422" width="30" height="21" fill="#C4C4C4"/>
<rect x="307" y="364" width="28" height="21" fill="#C4C4C4"/>
<rect x="365" y="306" width="28" height="21" fill="#C4C4C4"/>
<rect x="420" y="248" width="31" height="21" fill="#C4C4C4"/>
<rect x="479" y="190" width="29" height="21" fill="#C4C4C4"/>
<rect x="535" y="132" width="29" height="21" fill="#C4C4C4"/>
<rect x="597" y="74" width="28" height="21" fill="#C4C4C4"/>
<rect x="657" y="16" width="26" height="21" fill="#C4C4C4"/>
<rect y="654" width="15" height="43.1" fill="#C4C4C4"/>
<rect x="9" y="654" width="35" height="28" fill="#C4C4C4"/>
</svg>
